<?xml version="1.0" standalone="no"?>
<!DOCTYPE svg PUBLIC "-//W3C//DTD SVG 1.1//EN" "http://www.w3.org/Graphics/SVG/1.1/DTD/svg11.dtd" >
<svg xmlns="http://www.w3.org/2000/svg">
<metadata>Generated by IcoMoon</metadata>
<defs>
<font id="uno-icon" horiz-adv-x="512">
<font-face units-per-em="512" ascent="480" descent="-32" />
<missing-glyph horiz-adv-x="512" />
<glyph unicode="&#x20;" d="" horiz-adv-x="256" />
<glyph unicode="&#x2b;" d="M392.534 214.471c0 5.12-4.551 27.306-9.671 32.427-1.707 1.707-49.493 5.12-87.040 6.827-1.707 38.115-5.12 87.040-6.827 88.178-5.12 5.12-27.875 8.534-32.995 8.534-5.12 0-27.306-4.551-32.427-9.671-1.707-1.707-5.12-49.494-6.827-87.040-37.547-1.707-85.902-5.12-87.040-6.827-5.689-5.12-10.24-27.306-10.24-32.427 0-5.12 3.413-27.876 8.533-32.996 1.707-1.707 50.631-4.551 88.178-6.827 1.707-37.546 5.12-85.902 6.827-87.040 5.12-5.12 27.306-9.671 32.427-9.671 5.12 0 27.876 3.413 32.996 8.534 1.707 1.707 4.551 50.631 6.827 88.178 38.115 1.707 87.040 5.12 88.178 6.827 5.12 5.12 9.102 27.875 9.102 32.995z" />
<glyph unicode="&#x2d;" d="M119.466 214.471c0-5.12 3.413-27.876 8.534-32.996 2.275-2.276 105.245-7.964 128-7.964 24.462 0 125.725 5.689 128 7.964 5.12 5.12 8.534 27.875 8.534 32.995 0 5.12-4.551 27.307-9.671 32.427-2.276 2.275-100.125 7.964-126.862 7.964-23.893 0-124.587-5.689-126.862-7.964-5.12-5.12-9.671-27.307-9.671-32.427z" />
<glyph unicode="&#x3d;" d="M256 241.778c23.894 0 124.587 5.689 126.862 7.964 5.12 5.12 9.671 27.306 9.671 32.427 0 5.12-3.413 27.875-8.534 32.995-2.276 2.276-105.245 8.534-128 8.534-24.462 0-125.725-5.689-128-7.964-5.12-5.689-8.534-27.875-8.534-33.565 0-5.12 4.551-27.306 9.671-32.427 2.275-2.275 100.125-7.964 126.862-7.964zM256 187.164c-24.462 0-125.725-5.689-128-7.964-5.12-5.689-8.534-27.875-8.534-33.565 0-5.12 4.551-27.307 9.671-32.426 2.275-2.276 100.125-7.964 126.862-7.964 23.893 0 124.587 5.689 126.862 7.964 5.12 5.12 9.671 27.306 9.671 32.426 0 5.12-3.413 27.875-8.534 32.995-2.276 2.276-105.245 8.534-128 8.534z" />
<glyph unicode="&#x2ff;" d="M400.498 245.191c-2.276 2.275-91.022 11.378-113.778 11.378-9.671 0-30.151 0-50.631 0 19.342 21.049 43.804 47.218 43.804 49.493 0 6.827-11.378 23.894-14.791 27.307-3.413 3.413-20.48 15.36-26.738 15.929-2.845 0-58.026-47.218-72.818-62.578-9.671-9.671-60.871-65.422-62.009-72.249 0 0 0-0.569 0-0.569 0 0 0 0 0-0.569 0 0 0-0.569 0-0.569 0 0 0 0 0-0.569 1.707-5.689 52.907-59.164 63.146-69.974 15.36-15.36 67.129-63.716 69.974-63.716 6.827 0 23.894 11.378 27.306 14.791 3.413 3.413 15.36 20.48 15.929 26.738 0 2.276-22.187 28.445-40.96 50.062 19.342 0.569 38.115 1.138 48.355 1.138 23.894 0 110.365 6.258 112.64 8.534 5.12 5.12 9.671 27.307 9.671 32.426-0.569 5.689-3.982 27.876-9.102 32.996z" />
<glyph unicode="&#x25b3;" d="M402.774 397.084c-1.707 1.707-123.449 4.551-146.774 4.551-20.48 0-144.498-2.276-146.774-4.551-4.551-4.551-8.534-23.894-8.534-28.445 0-4.551 3.413-23.894 7.395-28.445 1.707-1.707 127.431-6.827 147.342-6.827 21.049 0 145.636 5.12 147.342 6.827 4.551 4.551 7.396 23.894 7.396 28.445 1.138 4.551-2.844 23.893-7.396 28.445zM256 307.2c0 0 0 0 0 0-0.569 0-0.569 0-0.569 0 0 0-0.569 0-0.569 0s0 0-0.569 0c-5.689-1.707-54.044-48.356-63.715-58.026-14.222-14.222-58.026-61.44-58.026-64.285 0-6.258 10.24-22.187 13.654-25.031 2.845-2.844 18.774-14.222 24.462-14.222 1.707 0 26.169 20.48 45.511 37.546 0.569-17.635 1.138-34.702 1.138-44.373 0-21.618 5.689-101.262 7.395-102.969 4.551-4.551 25.031-9.102 29.582-9.102 4.551 0 25.031 3.413 30.151 7.964 2.276 2.276 10.24 83.058 10.24 104.106 0 9.102 0 27.307 0 46.080 19.342-17.635 43.236-39.822 45.511-39.822 6.258 0 22.187 10.24 25.031 13.654 2.844 2.844 14.222 18.774 14.222 24.462 0 2.844-43.236 52.907-56.889 66.56-9.102 9.671-60.302 56.32-66.56 57.458z" />
<glyph unicode="&#x25bd;" d="M403.342 88.178c-1.707 1.707-127.431 6.827-147.342 6.827-21.049 0-145.636-5.12-147.342-6.827-4.551-4.551-7.395-23.894-7.395-28.445 0-4.551 3.982-23.894 8.534-28.445 1.707-1.707 123.449-4.551 146.773-4.551 20.48 0 144.498 2.276 146.774 4.551 4.551 4.551 8.534 23.894 8.534 28.445-0.569 4.551-3.982 23.894-8.534 28.445zM256 121.173c0 0 0 0 0 0 0.569 0 0.569 0 0.569 0 0 0 0.569 0 0.569 0s0 0 0.569 0c5.689 1.707 54.045 48.356 63.716 58.026 14.222 14.222 58.026 61.44 58.026 64.285 0 6.258-10.24 22.186-13.654 25.031-2.844 2.845-18.774 14.222-24.462 14.222-1.707 0-26.169-20.48-45.511-37.547-0.569 17.636-1.138 34.702-1.138 44.374 0 21.618-5.689 101.262-7.396 102.969-4.551 4.551-25.031 8.534-29.582 9.102-4.551 0-25.031-3.413-30.151-7.964-2.275-2.276-10.24-83.058-10.24-104.106 0-9.102 0-27.306 0-46.080-19.342 17.636-43.236 39.822-45.511 39.822-6.258 0-22.186-10.24-25.031-13.654-2.845-2.845-14.222-18.774-14.222-24.462 0-2.845 43.236-52.907 56.889-66.56 9.102-9.102 60.302-55.751 66.56-57.458z" />
<glyph unicode="&#x25c2;" d="M282.169 193.991c-5.689 5.689-10.809 9.671-23.325 21.049 11.947 10.809 15.929 14.791 22.187 21.049 15.36 15.36 63.716 67.698 63.716 70.542 0 6.827-11.378 24.462-14.791 27.875-3.413 3.413-20.48 15.929-27.307 15.929-2.844 0-58.596-47.786-73.387-62.578-9.671-9.671-60.871-65.991-62.578-72.818 0 0 0-0.569 0-0.569 0 0 0 0 0-0.569 0 0 0-0.569 0-0.569 0 0 0-0.569 0-0.569 1.707-6.258 52.906-59.164 63.715-69.974 15.36-15.36 67.698-63.716 70.542-63.716 6.827 0 24.462 11.378 27.875 14.791 3.413 3.413 15.929 20.48 15.929 27.306 0.569 2.276-47.218 57.458-62.578 72.818z" />
<glyph unicode="&#x2605;" d="M475.022 263.964c-0.569 1.138-2.844 5.689-3.982 6.258-0.569 0.569-65.991 1.138-74.524 0.569-4.551 0-39.254-0.569-63.147-1.138l-16.498 0.569c-1.138 0-2.276 0.569-3.413 1.707-0.569 4.551-23.325 75.094-25.031 81.92-2.276 7.964-23.325 69.974-23.894 70.542-1.138 1.138-6.258 1.707-7.396 1.707-1.138 0-6.258-1.138-7.395-2.276-0.569 0-22.186-64.284-24.462-71.68-2.275-6.258-21.618-68.836-25.031-80.214-0.569-0.569-1.707-1.138-2.275-1.138l-19.342-0.569c-23.893 0.569-58.596 1.138-63.147 1.138-7.965 0-73.386 0-74.525-0.569-1.706-0.569-3.982-5.12-3.982-6.258-0.569-1.138-1.138-6.258 0-7.395 0-1.138 54.614-41.529 60.871-46.080 3.413-2.276 25.6-17.635 44.942-29.582l21.049-15.929c1.707-1.138 2.275-2.844 1.707-4.551l-2.845-11.378c-7.964-22.187-20.48-60.302-22.186-64.853-2.275-7.396-23.325-72.249-22.755-72.818 0-1.707 3.413-5.12 4.551-6.258 1.138-0.569 5.689-2.844 6.827-2.844 1.138 0 54.613 40.391 60.871 44.942 3.413 2.844 27.875 21.049 46.080 34.702l19.342 12.515c1.707 1.138 3.413 1.138 5.12 0l25.031-16.498c17.635-14.791 38.115-31.289 41.529-33.565 6.258-4.551 60.302-42.666 60.871-42.098 1.707 0 6.258 2.276 6.827 2.844 1.138 0.569 4.551 4.551 4.551 6.258 0.569 0.569-20.48 65.422-22.755 72.818-1.707 5.12-18.204 53.476-25.031 72.818l-1.138 3.413c-0.569 1.707 0 3.413 1.707 4.551l2.844 2.276c18.204 13.084 55.751 39.822 59.733 43.236 6.258 4.551 60.871 45.511 60.871 46.080 0.569 0.569-0.569 5.689-0.569 6.827z" />
<glyph unicode="&#x2606;" d="M504.036 291.84c-4.551 3.982-27.306 7.395-31.858 7.395-0.569 0-2.276 0-3.982-0.569-1.707 20.48-3.982 35.84-5.12 37.547-6.827 6.826-42.666 11.378-49.493 11.378-6.827 0-42.666-5.689-48.925-12.515-2.276-2.275-4.551-48.356-6.258-86.471-43.805 2.275-105.814 4.551-120.605 4.551-11.378 0-48.924-1.138-85.902-2.845-2.275 37.547-6.827 84.196-9.102 86.471-6.827 6.827-42.666 11.378-49.493 11.378-6.826 0-42.666-5.689-48.925-12.515-1.138-1.138-2.276-15.929-3.982-35.84-1.706 0-3.413 0.569-4.551 0.569-4.551 0-27.306-3.982-31.289-7.964-1.707-1.707-4.551-54.044-4.551-76.8 0-19.911 2.276-75.094 4.551-76.8 3.982-4.551 27.306-7.964 31.289-7.964 0.569 0 2.276 0 4.551 0.569 1.138-19.342 2.276-34.702 3.413-35.84 6.827-6.827 42.667-12.515 48.925-12.515 6.826 0 42.666 4.551 49.493 11.378 2.275 2.276 6.827 47.786 9.102 84.764 35.84-1.138 73.386-1.707 85.902-1.707 14.791 0 77.369 1.138 120.605 2.844 1.138-36.978 3.982-82.489 5.689-84.764 6.827-6.827 42.666-12.515 48.925-12.515 6.827 0 42.666 4.551 49.493 11.378 1.138 1.138 3.413 17.067 5.12 37.546 1.707 0 3.413-0.569 3.982-0.569 4.551 0 27.307 2.844 31.858 7.396 1.707 1.707 6.827 58.596 6.827 77.369 1.138 18.773-3.413 73.955-5.689 75.662z" />
<glyph unicode="&#x260e;" d="M381.724 171.804c-17.067 17.067-40.391 31.858-43.236 31.858-7.396 0-25.6-13.084-29.014-17.067-3.413-3.413-19.342-24.462-21.618-33.565-23.894 14.791-45.511 28.445-53.476 36.409-9.102 9.102-25.6 33.565-42.098 58.596 7.395 5.12 31.289 18.204 34.702 21.049 3.413 3.413 17.066 21.618 17.066 29.014 0 3.413-15.929 27.306-31.858 43.236-17.066 17.066-40.391 31.858-43.236 31.858-7.395 0-25.6-13.084-29.013-17.067-0.569-0.569-1.138-1.138-1.707-1.707 0 0 0 0 0 0-17.636-18.204-39.254-67.698-39.254-77.369 0-3.982 62.578-112.071 87.609-137.102 21.049-20.48 131.982-85.902 135.964-85.902 9.671 0 60.871 31.289 74.524 45.511 3.413 3.413 17.067 21.618 17.067 29.014 0 3.413-16.498 27.307-32.426 43.236z" />
<glyph unicode="&#x2665;" d="M443.733 259.982c3.982 31.858 0 63.146-21.049 84.195-81.351 80.214-168.96-43.804-168.96-43.804-1.138 0-87.609 122.88-163.84 43.804-21.049-22.186-25.031-53.476-21.049-84.195 11.378-87.609 162.133-202.525 184.889-202.525 22.186 0 179.2 118.329 190.009 202.525z" />
<glyph unicode="&#x26a0;" d="M383.431 220.16c-48.356 74.525-108.089 167.822-126.862 167.822-11.947 0-48.924-65.991-119.466-164.978-7.395-10.809-109.796-167.822-99.555-178.062 5.689-5.689 151.325-4.551 219.591-4.551 60.302 0 211.627-1.138 217.315 4.551 13.084 13.084-83.626 164.409-91.022 175.218zM240.64 291.84c2.275 2.275 15.36 4.551 17.635 4.551s15.36-1.707 18.204-3.982l2.276-62.009c0-10.24-1.707-67.129-2.844-68.267-2.276-2.276-15.929-3.982-18.204-3.982-2.275 0-15.36 2.276-17.636 4.551-1.138 1.138-2.275 56.889-2.275 67.698 0 11.947 1.707 60.302 2.845 61.44zM277.049 89.315c-5.12-4.551-11.378-6.827-18.204-6.827s-13.084 2.276-18.204 6.827c-5.689 4.551-8.534 11.378-8.534 19.342 0 8.534 2.845 14.791 8.534 19.342 5.12 4.551 11.378 6.827 18.204 6.827s13.084-2.276 18.204-6.827c5.689-4.551 8.534-11.378 8.534-19.342-0.569-7.964-3.413-14.791-8.534-19.342z" />
<glyph unicode="&#xe600;" d="M256 410.951c-105.814 0-191.147-85.334-191.147-191.147s85.334-191.147 191.147-191.147c105.813 0 191.147 85.334 191.147 191.147 0 105.245-85.334 191.147-191.147 191.147zM180.906 348.942v0c1.138 1.138 2.275 1.707 3.413 1.707l32.427 7.396c0 0 38.684 8.534 42.667 11.378s58.596-11.378 63.147-11.378c3.413 0 0.569-14.222 0-17.067 0-0.569 0-0.569 0-1.138v-22.186c0-9.671-5.689-14.791-7.396-15.929-0.569-0.569-0.569-0.569-1.138-1.138l-15.929-19.911c-1.138-1.138-2.844-2.275-4.551-2.275h-31.858c-1.707 0-2.844 0.569-3.982 1.707l-19.911 20.48c-0.569 0.569-1.138 1.138-1.138 1.707l-11.378 11.378c0 0.569-0.569 1.138-0.569 1.138l-13.084 15.929c-0.569 0.569-1.138 1.138-1.707 1.707l-14.791 7.965c-1.707 0.569-2.845 1.138-4.551 0.569l-2.845-1.138c-6.258-2.275-10.809 4.551-6.827 9.102zM116.053 269.298v7.396c0 3.413 22.187 14.222 28.444 17.635 1.138 0.569 2.275 1.138 3.413 2.275l7.395 7.396c4.551 4.551 11.946 4.551 16.498 0l5.12-5.12c2.275-2.276 3.413-5.12 3.413-8.534v-17.066c0-3.982-10.24-10.809-15.36-13.654-1.707-1.138-3.982-1.707-6.258-1.707h-31.858c-5.12-0.569-10.809 4.551-10.809 11.378zM377.173 132.196c0-0.569-0.569-1.138-1.138-1.138l-32.995-34.133c-0.569-0.569-1.138-0.569-1.707-1.138l-50.062-22.755c-1.138-0.569-1.707-0.569-2.844-0.569l-72.818 12.515c-2.845 0.569-4.551 2.844-3.982 5.689l1.707 15.36c0 0 0 0.569 0 0.569v21.049c0 2.276-1.138 3.982-3.413 4.551l-31.858 12.515c-1.138 0.569-1.707 1.138-2.275 1.707l-22.186 33.565c-0.569 1.138-1.707 1.707-2.845 2.276-5.12 1.707-19.911 8.534-16.498 19.911 1.707 5.689 1.707 14.222 1.707 22.186 0 5.12 6.827 7.395 9.671 2.845l35.271-55.182c0-0.569 0.569-0.569 0.569-1.138l9.102-9.102c0 0 0.569-0.569 1.138-0.569l25.6-15.929c0 0 0.569 0 0.569-0.569l14.791-11.947c1.707-1.707 4.551-1.707 6.258 0l24.462 19.342c0.569 0.569 1.138 1.138 1.138 1.707l14.791 26.169c0.569 0.569 0.569 1.707 0.569 2.844v14.222c0 2.844-2.276 5.12-5.12 5.12h-34.133c-1.707 0-3.982 1.138-4.551 2.844l-9.671 19.342c-1.138 2.275-0.569 4.551 1.138 6.258l4.551 3.982c1.707 1.707 3.982 1.707 5.689 0.569l14.222-7.395c0.569 0 1.138-0.569 1.707-0.569 3.413-0.569 18.774-3.413 25.6-6.827 6.827-3.413 26.169-14.222 31.289-17.066 0.569-0.569 1.707-0.569 2.276-0.569h18.774c1.707 0 2.844-0.569 3.982-1.707l10.24-11.947c0.569-0.569 0.569-1.138 1.138-1.707l7.964-19.911c1.707-3.982 6.827-4.551 9.102-0.569l13.654 22.187c1.138 1.707 2.844 2.276 4.551 2.276h15.36c3.982 0 6.258-3.982 4.551-7.396l-25.031-51.769z" />
<glyph unicode="&#xe602;" d="M324.267 215.040c0-37.702-30.564-68.267-68.267-68.267s-68.267 30.564-68.267 68.267c0 37.703 30.564 68.267 68.267 68.267 37.702 0 68.267-30.564 68.267-68.267zM254.862 364.089c-63.147 0-113.778-33.565-145.636-62.009-23.894-21.618-59.733-75.094-59.733-87.609 0-16.498 22.187-62.578 55.751-92.16 29.582-26.169 79.076-57.458 149.618-57.458 125.725 0 207.644 130.275 207.644 149.618 0 28.445-89.885 149.618-207.644 149.618zM254.862 117.76c-52.338 0-89.885 22.755-112.071 42.098-25.6 22.187-36.409 46.649-36.409 52.338 0 9.102 67.698 98.418 149.049 98.418 87.609 0 151.324-83.626 151.324-95.573-0.569-6.258-59.164-97.28-151.893-97.28z" />
<glyph unicode="&#xe604;" d="M395.378 223.004c-0.569 1.138-3.982 2.276-20.48 3.982 1.138 18.204 1.707 36.978 1.707 46.080 0 35.271-16.498 65.991-46.649 87.040-14.791 10.24-27.875 15.36-62.009 17.636h-25.031c-33.565-2.276-46.649-7.396-61.44-17.636-30.151-21.049-46.649-38.115-46.649-72.818 0-3.982 0-3.982 0-6.258 0-13.084-0.569-12.516 1.138-14.222 3.982-4.551 22.756-7.964 26.738-7.964 3.982 0 18.204 2.844 22.186 6.827 1.138 1.138 1.138 6.827 1.138 18.774 0 18.204 11.378 23.324 23.893 31.289 7.395 4.551 23.325 10.24 36.978 10.809 6.827 0 8.534 0 18.204 0 13.084-1.138 30.151-6.258 36.978-10.809 14.791-10.24 20.48-24.462 20.48-42.667 0-9.102-0.569-26.169-1.138-42.098-33.565 2.275-54.613 3.413-69.404 3.413-34.702 0-131.982-8.534-135.395-11.378-7.395-7.395-8.534-75.662-8.534-83.058 0-7.396 2.275-75.094 9.671-82.489 3.413-2.844 95.573-7.396 133.689-7.396 33.565 0 139.378 3.982 142.222 7.396 7.396 7.396 9.671 75.094 9.671 82.489 0.569 11.378 0 72.818-7.964 83.058z" />
<glyph unicode="&#xe605;" d="M449.991 297.529c-1.707 1.707-58.026 5.689-110.365 7.964-1.138 21.618-2.276 47.786-3.413 51.769-0.569 3.982-2.276 14.222-4.551 16.498-1.138 1.707-67.698 4.551-80.214 4.551-13.084 0-79.076-2.844-80.214-4.551-2.275-2.844-4.551-13.084-4.551-17.066-0.569-3.413-1.707-29.582-2.275-51.2-50.062-2.844-101.262-6.258-102.969-7.964-6.827-7.396-11.947-112.64-11.378-120.036 0-7.396 6.258-112.64 13.654-120.036 3.414-2.844 151.893-7.396 189.44-7.396 33.565 0 192.284 3.982 195.129 7.396 7.396 6.827 13.654 112.64 13.654 120.036 0.569 7.396-4.551 112.64-11.947 120.036zM205.369 307.769c-0.569 9.671-1.138 23.894-1.707 32.995 18.773-0.569 39.822-1.138 47.786-1.138 6.826 0 29.013 0.569 48.355 1.138-0.569-9.102-0.569-22.755-1.138-32.426-20.48 1.138-37.546 1.138-45.511 1.138-9.102-0.569-26.738-1.138-47.786-1.707zM393.671 173.511c-1.707-4.551-11.947-24.462-18.204-27.307-2.844-1.138-38.115 4.551-60.871 12.515-21.049 7.396-54.044 24.462-55.751 27.307-2.844 6.258 0.569 28.445 2.276 32.995 1.707 4.551 13.084 23.894 19.342 26.738 1.138 0.569 8.534-0.569 18.204-3.413 1.707-0.569 2.844-0.569 4.551-1.138 0 0 0 0 0 0 1.707-0.569 2.844-0.569 4.551-1.138 0 0 0 0 0 0 1.707-0.569 3.413-0.569 4.551-1.138 0 0 0 0 0 0 8.534-2.275 17.067-5.12 24.462-7.395 0.569 0 1.138-0.569 1.138-0.569 24.462-8.534 54.044-21.618 55.182-24.462 5.12-6.258 2.276-28.445 0.569-32.995z" />
<glyph unicode="&#xe606;" d="M254.293 296.96c-36.409 0-125.725 0-129.138-3.413-7.395-7.964 4.551-113.209 5.12-121.174 0-7.396 21.618-130.275 29.582-137.671 3.413-3.413 48.924-10.24 88.746-10.24 35.271 0 100.125 7.396 103.538 10.24 7.964 7.396 29.582 130.276 29.582 137.671 0 7.396 12.515 113.209 5.12 121.174-3.413 3.413-98.418 3.413-132.551 3.413zM256 327.68c19.342 0 128-1.138 129.707 0.569 3.982 3.982 6.827 21.618 6.827 25.6 0 3.982-3.413 21.618-7.396 25.6-1.138 1.138-58.596 2.844-97.28 3.413 0 0.569 0 1.707 0 1.707 0 2.844-2.276 14.791-5.12 17.636-1.138 1.138-11.947 2.844-26.169 2.844-12.516 0-25.031-1.707-26.169-2.844-2.845-2.845-5.12-14.791-5.12-17.636 0-0.569 0-1.138 0-1.707-38.684-0.569-96.142-2.276-97.28-3.413-3.982-3.982-7.395-21.618-7.395-25.6 0-3.982 2.844-21.618 6.826-25.6 0.569-2.275 110.365-0.569 128.569-0.569z" />
<glyph unicode="&#xe607;" d="M256 400.498c-102.969 0-186.026-83.626-186.026-186.026 0-102.969 83.626-186.027 186.026-186.027s186.026 83.626 186.026 186.026c0 102.4-83.058 186.027-186.026 186.027zM256 91.022c-68.267 0-123.449 55.182-123.449 123.449 0 68.267 55.182 123.449 123.449 123.449 68.267 0 123.449-55.182 123.449-123.449 0-68.267-55.182-123.449-123.449-123.449zM264.534 312.889c-2.276 0-12.516-2.275-14.791-4.551-1.138-1.138-2.275-49.494-2.275-62.009 0-5.689 0.569-23.893 1.138-39.822-11.947 1.138-27.306 1.707-33.565 1.707l-44.374-3.413c-2.275-2.276-3.982-12.515-3.982-14.791s2.275-12.515 4.551-14.791c1.138-1.138 31.289-2.276 43.236-2.276 9.102 0 38.115 1.138 46.649 1.707 1.138 0 2.276-0.569 2.844-0.569 2.276 0 12.515 1.707 14.791 3.982 1.138 1.138 3.982 57.458 3.982 68.267l-3.982 62.009c-1.707 2.844-11.947 4.551-14.222 4.551z" />
<glyph unicode="&#xe608;" d="M255.431 296.391c-5.689 0-25.6-5.12-31.289-11.378-2.275-2.844-5.689-74.524-5.689-105.245 0-27.306 3.413-102.4 5.689-105.245 5.689-6.258 25.031-11.378 31.289-11.378 5.689 0 25.6 3.982 31.289 9.671 2.844 2.276 6.258 80.214 6.258 106.382 0 27.875-3.413 104.107-6.258 106.382-5.689 6.827-25.031 10.809-31.289 10.809zM404.48 354.987c-6.258 5.689-25.6 10.24-31.289 9.671-5.689 0-25.6-5.12-31.289-11.378-2.276-2.844-5.689-108.658-5.689-139.378 0-27.306 3.413-137.102 5.689-139.378 5.689-6.258 25.031-11.378 31.289-11.378 5.689 0 25.6 3.982 31.289 9.671 2.844 2.276 6.258 114.346 6.258 141.084 0 28.445-3.413 138.809-6.258 141.085zM138.24 227.555c-5.689 0-25.6-5.12-31.289-11.378-2.275-2.844-5.689-40.391-5.689-71.111 0-27.306 3.413-68.267 5.689-71.111 5.689-6.258 25.031-11.378 31.289-11.378 5.689 0 25.6 3.982 31.289 9.671 2.845 2.276 6.258 45.511 6.258 72.249 0 27.875-3.413 69.404-6.258 72.249-5.689 6.827-25.031 10.809-31.289 10.809z" />
<glyph unicode="&#xe60b;" d="M154.169 351.004c-5.12 0-27.306-4.551-32.427-9.671-2.275-2.276-7.965-100.125-7.965-126.862 0-23.894 5.689-124.587 7.965-126.862 5.12-5.12 27.306-9.671 32.427-9.671 5.12 0 27.875 3.413 32.995 8.534 2.275 2.276 7.964 104.675 7.964 128 0 24.462-5.689 125.725-7.964 128-5.689 4.551-27.875 8.534-32.995 8.534zM398.791 213.902c0 0 0 0.569 0 0-1.707 7.964-63.147 67.129-73.387 77.369-15.929 15.929-73.387 59.733-76.231 59.164-6.827 0-7.964-2.845-11.378-6.258-3.413-3.413-2.845-257.707 1.138-261.12 3.413-3.413 5.12-5.689 11.946-5.689 2.845 0 57.458 44.373 73.956 60.871 11.378 11.378 72.818 67.698 74.524 73.956 0 0 0 0.569 0 0.569-0.569 0.569-0.569 0.569-0.569 1.138 0 0 0 0 0 0z" />
<glyph unicode="&#xe60c;" d="M397.084 181.475c5.12 4.551 9.102 26.169 9.102 31.289s-3.413 26.169-8.534 31.289c-1.707 1.707-8.534 5.12-21.618 6.827-2.276 7.965-5.689 15.36-9.671 22.756 7.964 10.24 10.809 18.204 10.809 19.911 0 6.827-12.515 24.462-16.498 27.875-3.413 3.413-21.618 15.36-28.445 15.36-2.276 0-7.396-2.276-18.204-11.947-6.827 3.413-13.654 6.258-21.618 8.534-0.569 14.222-2.844 19.342-4.551 21.049-4.551 5.12-26.169 9.102-31.289 9.102-5.12 0-26.169-3.413-31.289-8.534-1.707-1.707-5.12-9.102-6.827-22.755-7.395-2.275-14.791-5.12-21.049-9.102-10.809 9.671-16.498 11.947-18.773 12.515-6.827 0-25.031-11.947-28.445-15.36-3.413-3.413-15.929-21.049-16.498-27.875 0-2.275 2.845-10.24 11.378-21.049-3.413-6.827-6.258-13.654-9.102-21.618-14.222-1.707-21.618-5.12-23.325-6.827-4.551-5.12-8.534-26.169-8.534-31.289 0-5.12 4.551-26.169 9.102-31.289 1.707-1.707 7.395-3.982 22.186-4.551 2.275-7.396 5.12-14.222 8.534-20.48-9.671-10.809-12.516-16.498-12.516-18.774 0-6.827 11.947-25.031 15.36-28.445 3.413-3.413 21.049-15.929 27.875-16.498 2.275 0 10.24 2.276 21.049 11.378 6.827-3.413 14.222-6.827 21.618-9.102 1.707-13.654 5.12-21.049 6.827-22.755 5.12-4.551 26.169-8.534 31.289-8.534 5.12 0 26.169 4.551 31.289 9.102 1.707 1.707 3.413 6.827 4.551 21.049 7.396 2.276 14.791 5.12 21.618 9.102 10.809-8.534 18.204-10.809 20.48-10.809 6.827 0 24.462 12.515 27.875 16.498 3.413 3.413 15.36 21.618 15.36 28.445 0 2.276-2.276 7.396-11.378 17.635 3.413 6.827 6.827 14.222 9.102 21.618 15.929 2.844 21.049 5.12 22.755 6.258zM193.991 214.471c0 34.702 27.875 62.578 62.578 62.578 34.702 0 62.578-27.876 62.578-62.578 0-34.702-27.875-62.578-62.578-62.578-34.133 0-62.578 27.875-62.578 62.578z" />
<glyph unicode="&#xe60d;" d="M348.16 195.129c-1.138 1.707-2.276 3.413-3.413 5.12 6.258 14.791 9.102 31.289 9.102 48.356 0.569 71.68-57.458 129.706-129.138 129.706s-129.138-58.026-129.138-129.706 58.026-129.138 129.138-129.138c15.929 0 31.289 2.844 46.080 8.534 1.707-1.138 2.844-1.707 4.551-2.844 25.031-18.204 94.435-73.955 98.986-73.955 6.827 0 23.894 11.378 27.307 14.791 3.413 3.413 15.36 19.911 15.36 26.738-0.569 3.413-51.2 76.8-68.836 102.4zM143.929 248.604c0 44.374 36.409 80.782 80.782 80.782s80.782-36.409 80.782-80.782c0-44.374-36.409-80.782-80.782-80.782-44.374 0-80.782 36.409-80.782 80.782z" />
<glyph unicode="&#xe60e;" d="M366.933 279.893c-5.12 3.982-43.236 30.151-89.885 34.134 2.844 1.138 25.031 22.187 30.72 44.374 5.689 21.618 5.689 31.289 2.844 34.133-6.258 6.258-47.786 0.569-54.045 0.569-6.258 0-49.493 4.551-55.182-1.707-2.275-2.845-7.395-5.12 3.413-35.84 10.24-28.444 26.169-38.684 28.445-39.822-51.769-4.551-79.644-30.72-84.195-35.84-12.516-13.084-54.614-48.924-54.614-113.209 0-60.302 27.306-104.675 40.391-117.76 5.689-5.689 46.080-15.929 113.778-15.929 59.733 0 123.449 7.396 128.569 13.084 13.084 12.515 40.391 46.080 40.391 120.604 0 65.422-31.858 98.987-50.631 113.209zM300.942 111.502c-7.396-10.24-17.635-14.791-29.582-15.929 0 0 0-0.569 0-0.569 0-7.964-1.138-18.204-1.707-19.342-1.707-1.707-9.671-2.844-11.378-2.844-1.707 0-9.671 1.707-11.378 3.413-1.138 0.569-2.275 10.24-2.275 18.774 0 0.569 0 1.138 0 1.707-18.204 3.413-34.702 10.24-37.547 11.947v0c-0.569 0-0.569 0.569-0.569 0.569-1.138 2.844 1.138 12.515 1.707 14.222 0.569 2.276 6.258 10.24 9.102 11.378 0 0 0.569 0 1.707-0.569v0c20.48-9.102 52.338-16.498 59.733-6.258 3.982 5.689 5.12 11.378 3.413 15.36-2.844 5.689-12.515 9.671-26.169 10.809-51.769 4.551-49.494 45.511-49.494 46.080 1.138 18.204 10.24 27.876 17.636 32.996 6.258 3.982 13.654 6.258 21.049 7.395 0 0 0 0.569 0 0.569 0 9.671 1.138 18.205 1.707 18.773 1.707 1.707 9.671 3.413 11.378 3.413 1.707 0 9.671-1.138 11.378-2.844 0.569-0.569 1.707-10.24 1.707-19.342 0-0.569 0-0.569 0-1.138 17.635-2.275 32.426-7.964 35.84-9.102v0 0c1.138-2.845 0-12.516-0.569-14.222-0.569-2.276-5.12-10.809-7.964-11.947 0 0-0.569 0-1.707 0.569v0 0c-1.138 0.569-1.707 0.569-2.844 1.138-0.569 0-1.138 0.569-1.707 0.569-17.635 5.689-43.236 10.24-54.044 3.413-2.275-1.707-4.551-3.982-5.12-11.378 0-3.413 1.707-14.791 23.893-16.498 31.858-2.844 44.373-15.929 49.493-27.307 6.258-14.222 3.982-30.151-5.689-43.805z" />
<glyph unicode="&#xe60f;" d="M441.458 415.858c-2.844 2.844-160.995 7.964-189.44 7.964-30.151 0-179.2-5.12-182.044-7.964-5.689-6.258-7.395-207.645-7.395-213.902 0-6.258 2.844-187.733 9.102-193.991 2.275-2.276 87.609-2.844 142.222-3.413-0.569 14.791-1.138 37.546-1.138 38.115 0 1.138 0.569 60.871 1.707 62.009 0.569 0.569 35.84 1.707 40.96 1.707 4.551 0 41.529-1.138 42.098-1.707 1.138-1.138 1.707-60.871 1.707-62.009 0-0.569-0.569-23.325-1.138-38.115 56.32 0.569 139.947 1.138 142.222 3.413 6.827 6.827 8.534 157.014 9.102 193.991 0 6.258-1.707 207.645-7.964 213.902zM183.182 170.667c-0.569-0.569-25.6-1.138-30.72-1.138s-29.013 0.569-29.013 1.138c-1.138 1.138-1.707 15.929-1.707 17.067 0 1.138 0.569 15.929 1.707 17.067 0.569 0.569 24.462 1.707 29.582 1.707 4.551 0 30.151-1.138 30.72-1.707 1.138-1.138 1.707-15.929 1.707-17.067-0.569-1.138-1.138-15.929-2.275-17.067zM183.182 237.795c-0.569-0.569-25.6-1.138-30.72-1.138s-29.013 0.569-29.013 1.138c-1.138 1.138-1.707 15.929-1.707 17.066 0 1.138 0.569 15.929 1.707 17.066 0.569 0.569 24.462 1.707 29.582 1.707 4.551 0 30.151-1.138 30.72-1.707 1.138-1.138 1.707-15.929 1.707-17.066-0.569-0.569-1.138-15.929-2.275-17.066zM183.182 305.493c-0.569-0.569-25.6-1.138-30.72-1.138s-29.013 0.569-29.013 1.138c-1.138 1.138-1.707 15.929-1.707 17.067 0 1.138 0.569 15.929 1.707 17.066 0.569 0.569 24.462 1.707 29.582 1.707 4.551 0 30.151-1.138 30.72-1.707 1.138-1.138 1.707-15.929 1.707-17.066-0.569-1.138-1.138-15.929-2.275-17.067zM286.151 170.667c-0.569-0.569-25.6-1.138-30.72-1.138s-29.013 0.569-29.013 1.138c-1.138 1.138-1.707 15.929-1.707 17.067 0 1.138 0.569 15.929 1.707 17.067 0.569 0.569 24.462 1.707 29.582 1.707 4.551 0 30.151-1.138 30.72-1.707 1.138-1.138 1.707-15.929 1.707-17.067-0.569-1.138-1.138-15.929-2.276-17.067zM286.151 237.795c-0.569-0.569-25.6-1.138-30.72-1.138s-29.013 0.569-29.013 1.138c-1.138 1.138-1.707 15.929-1.707 17.066 0 1.138 0.569 15.929 1.707 17.066 0.569 0.569 24.462 1.707 29.582 1.707 4.551 0 30.151-1.138 30.72-1.707 1.138-1.138 1.707-15.929 1.707-17.066-0.569-0.569-1.138-15.929-2.276-17.066zM286.151 305.493c-0.569-0.569-25.6-1.138-30.72-1.138s-29.013 0.569-29.013 1.138c-1.138 1.138-1.707 15.929-1.707 17.067 0 1.138 0.569 15.929 1.707 17.066 0.569 0.569 24.462 1.707 29.582 1.707 4.551 0 30.151-1.138 30.72-1.707 1.138-1.138 1.707-15.929 1.707-17.066-0.569-1.138-1.138-15.929-2.276-17.067zM388.551 170.667c-0.569-0.569-25.6-1.138-30.72-1.138s-29.014 0.569-29.014 1.138c-1.138 1.138-1.707 15.929-1.707 17.067 0 1.138 0.569 15.929 1.707 17.067 0.569 0.569 24.462 1.707 29.582 1.707 4.551 0 30.151-1.138 30.72-1.707 1.138-1.138 1.707-15.929 1.707-17.067 0-1.138-1.138-15.929-2.276-17.067zM388.551 237.795c-0.569-0.569-25.6-1.138-30.72-1.138s-29.014 0.569-29.014 1.138c-1.138 1.138-1.707 15.929-1.707 17.066 0 1.138 0.569 15.929 1.707 17.066 0.569 0.569 24.462 1.707 29.582 1.707 4.551 0 30.151-1.138 30.72-1.707 1.138-1.138 1.707-15.929 1.707-17.066 0-0.569-1.138-15.929-2.276-17.066zM388.551 305.493c-0.569-0.569-25.6-1.138-30.151-1.138-5.12 0-29.014 0.569-29.014 1.138-1.138 1.138-1.707 15.929-1.707 17.067 0 1.138 0.569 15.929 1.707 17.066 0.569 0.569 24.462 1.707 29.582 1.707 4.551 0 30.151-1.138 30.72-1.707 1.138-1.138 1.707-15.929 1.707-17.066-0.569-1.138-1.707-15.929-2.844-17.067z" />
<glyph unicode="&#xe611;" d="M176.356 344.178c3.413 3.413 4.551 6.258 11.378 6.258 2.845 0 60.871-43.804 76.231-59.164 10.24-10.24 71.68-69.405 72.818-76.8 0 0 0-0.569 0-0.569 0 0 0 0 0-0.569 0 0 0-0.569 0-0.569 0 0 0-0.569 0-0.569-1.707-6.258-63.147-62.578-74.524-73.956-16.498-16.498-70.542-60.871-73.956-60.871-6.827 0-8.534 1.707-11.946 5.689-2.275 3.413-3.413 257.707 0 261.12z" />
<glyph unicode="&#xe613;" d="M357.262 341.902c-5.12 5.12-27.875 8.534-32.995 8.534s-27.306-4.551-32.426-9.671c-2.276-2.276-7.964-100.124-7.964-126.862 0-23.894 5.689-124.587 7.964-126.862 5.12-5.12 27.307-9.671 32.426-9.671 5.12 0 27.875 3.413 32.995 8.534 2.276 2.276 7.964 104.675 7.964 128 0 25.031-5.689 126.293-7.964 128zM187.733 351.004c-5.12 0-27.306-4.551-32.427-9.671-2.275-2.276-7.964-100.125-7.964-126.862 0-23.894 5.689-124.587 7.964-126.862 5.12-5.12 27.306-9.671 32.427-9.671 5.12 0 27.875 3.413 32.995 8.534 2.275 2.276 7.964 104.675 7.964 128 0 24.462-5.689 125.725-7.964 128-5.689 4.551-27.875 8.534-32.995 8.534z" />
<glyph unicode="&#xe614;" d="M457.955 251.449c-0.569 0.569-7.396 1.138-18.204 1.707-12.515 62.578-31.858 147.911-33.565 149.049-0.569 1.138-1.707 2.844-2.276 3.413-2.276 2.844-120.605 9.671-147.911 9.671v0c0 0 0 0 0 0s0 0 0 0v0c-27.306 0-145.066-6.827-147.911-9.671-0.569-0.569-1.707-2.275-2.275-3.413-2.275-1.707-21.049-87.040-33.565-149.049-10.809-0.569-17.636-1.138-18.204-1.707-5.689-6.258-10.24-84.765-10.24-91.022 0-6.258 5.12-79.075 11.378-84.764 0.569-0.569 9.671-1.138 23.325-1.707 1.707-30.151 2.844-52.338 3.982-53.476 6.258-5.689 32.427-10.24 38.115-10.24 6.258 0 31.858 5.12 37.547 11.378 0.569 1.138 1.707 21.618 2.845 49.493 41.529-1.138 83.058-1.707 95.004-1.707 12.515 0 53.476 0.569 95.005 1.707 1.138-27.875 1.707-48.925 2.844-49.493 5.689-6.258 31.858-11.378 37.546-11.378 6.258 0 31.858 3.982 38.115 10.24 1.138 1.138 2.276 23.325 3.982 53.476 13.654 0.569 22.755 1.138 23.325 1.707 6.258 5.689 11.378 78.507 11.378 84.764 0 6.258-3.982 85.334-10.24 91.022zM256 261.12c-11.947 0-75.094-1.138-117.76-3.413 4.551 25.031 9.102 61.44 12.516 85.334 31.858 0 90.453-2.276 104.675-2.276v0c0 0 0 0 0 0s0 0 0 0v0c14.222 0 72.818 2.276 104.675 2.276 3.982-23.893 8.534-59.733 12.515-85.334-41.529 2.276-104.106 3.413-116.622 3.413zM130.275 128.569c-18.773 0-34.133 15.36-34.133 34.134s15.36 34.134 34.133 34.134c18.773 0 34.133-15.36 34.133-34.134 0-18.774-15.36-34.134-34.133-34.134zM381.724 128.569c-18.774 0-34.133 15.36-34.133 34.134s15.36 34.134 34.134 34.134c18.774 0 34.134-15.36 34.134-34.134 0-18.774-15.36-34.134-34.134-34.134z" />
<glyph unicode="&#xe615;" d="M472.747 259.982c0 94.435-76.8 171.235-171.236 171.235-71.111 0-131.982-43.235-157.582-104.675-61.44-26.169-104.675-87.040-104.675-157.582 0-94.435 76.8-171.236 171.236-171.236 71.111 0 131.982 43.236 157.582 104.675 61.44 26.169 104.675 86.471 104.675 157.582zM210.489 48.355c-66.56 0-120.035 54.045-120.035 120.036 0 66.56 54.044 120.036 120.035 120.036 66.56 0 120.035-54.044 120.035-120.036 0-65.991-53.476-120.036-120.036-120.036zM381.724 170.098c-0.569 46.080-19.342 88.178-49.493 118.898 0 0 0 0 0 0 1.138-0.569 1.707-0.569 2.844-1.138v0 0c0.569 0 1.138-0.569 1.138-0.569 2.844 1.138 6.827 9.102 7.396 11.378 0.569 1.707 1.707 10.809 0.569 13.654 0 0 0 0 0 0v0c-2.844 1.138-16.498 6.258-32.995 8.534 0 0.569 0 0.569 0 1.138 0 7.964-1.138 17.067-1.707 17.635-1.707 1.707-9.102 2.845-10.809 2.845-1.707 0-9.102-1.707-10.809-3.413-0.569-0.569-1.707-8.534-1.707-17.067-22.187 10.809-47.786 17.067-73.956 17.635 22.186 24.462 54.044 40.391 89.884 40.391 66.56 0 120.036-54.045 120.036-120.036-0.569-35.84-15.929-67.698-40.391-89.885zM209.92 178.631c-21.049 1.707-22.186 11.947-22.186 15.36 0.569 6.827 2.845 9.102 4.551 10.24 9.671 6.258 34.133 2.276 50.062-3.413 0.569 0 1.138-0.569 1.707-0.569 1.138-0.569 1.707-0.569 2.845-1.138v0 0c0.569 0 1.138-0.569 1.138-0.569 2.845 1.138 6.827 9.102 7.395 11.378 0.569 1.707 1.706 10.809 0.569 13.654 0 0 0 0 0 0v0c-2.845 1.138-16.498 6.258-32.995 8.534 0 0.569 0 0.569 0 1.138 0 7.964-1.138 17.066-1.707 17.636-1.707 1.707-9.102 2.845-10.809 2.845-1.707 0-9.102-1.707-10.809-3.413-0.569-0.569-1.707-8.534-1.707-17.636 0 0 0-0.569 0-0.569-7.395-1.138-14.222-2.845-19.911-6.827-6.827-4.551-15.929-13.654-16.498-30.72 0-0.569-2.275-38.685 46.080-43.236 13.084-1.138 22.186-5.12 24.462-10.24 1.707-3.413 0.569-9.102-3.413-14.222-6.827-9.671-36.978-2.844-55.751 5.689v0c-1.138 0.569-1.707 0.569-1.707 0.569-2.845-1.138-7.395-8.534-8.534-10.809-0.569-1.707-2.845-10.809-1.707-13.084 0 0 0.569 0 0.569-0.569v0c3.413-1.707 18.204-7.964 35.271-11.378 0-0.569 0-1.138 0-1.707 0-7.964 1.138-16.498 1.707-17.635 1.707-1.707 9.102-3.413 10.809-3.413 1.707 0 9.102 1.138 10.809 2.844 0.569 0.569 1.707 10.24 1.707 17.635 0 0 0 0.569 0 0.569 10.809 1.138 21.049 5.689 27.306 15.36 9.102 13.084 11.378 27.875 5.689 40.391-3.413 11.947-15.36 25.031-44.942 27.307z" />
<glyph unicode="&#xe616;" d="M383.431 409.6c-3.413 3.413-95.005 10.24-130.275 10.24-37.547 0-121.174-6.827-124.018-10.24-7.965-7.964-6.826-186.026-6.826-193.991 0-7.965 0.569-191.716 8.533-199.68 3.413-3.413 81.92-7.964 122.88-7.964 36.409 0 125.156 4.551 128.569 7.964 7.964 7.964 7.964 191.716 8.534 199.68-0.569 7.964 0 186.027-7.396 193.991zM254.293 35.84c-11.378 0.569-19.911 10.24-21.049 21.049-1.138 13.654 9.671 24.462 22.756 24.462 12.515 0 22.755-10.24 22.755-22.755 0-13.084-11.378-23.325-24.462-22.755zM341.334 114.915c-2.276-2.276-60.871-5.689-87.040-5.689-29.582 0-77.369 3.413-79.644 5.689-5.689 5.689-3.982 123.449-3.982 129.138 0 5.689-2.845 117.76 2.845 123.449 2.275 2.275 54.044 6.827 81.351 6.827 25.6 0 85.902-3.982 88.178-6.827 5.689-5.689 2.844-117.76 2.844-123.449-0.569-5.689 1.138-123.449-4.551-129.138z" />
<glyph unicode="&#xe618;" d="M411.307 210.489c0 4.551-3.413 23.894-7.396 28.445-1.707 1.707-127.431 6.827-147.342 6.827-21.049 0-145.636-5.12-147.342-6.827-4.551-4.551-7.395-23.893-7.395-28.445 0-4.551 3.982-23.894 8.534-28.445 1.707-1.707 123.449-4.551 146.774-4.551 20.48 0 144.498 2.276 146.774 4.551 3.413 4.551 7.396 23.894 7.396 28.445zM411.307 320.853c0 4.551-3.413 23.894-7.396 28.445-1.707 1.707-127.431 6.826-147.342 6.826-21.049 0-145.636-5.12-147.342-6.826-4.551-4.551-7.395-23.893-7.395-28.445 0-4.551 3.982-23.894 8.534-28.445 1.707-1.707 123.449-4.551 146.774-4.551 20.48 0 144.498 2.275 146.774 4.551 3.413 4.551 7.396 23.893 7.396 28.445zM411.307 105.244c0 4.551-3.413 23.894-7.396 28.445-1.707 1.707-127.431 6.827-147.342 6.827-21.049 0-145.636-5.12-147.342-6.827-4.551-4.551-7.395-23.894-7.395-28.445 0-4.551 3.982-23.894 8.534-28.445 1.707-1.707 123.449-4.551 146.774-4.551 20.48 0 144.498 2.276 146.774 4.551 3.413 4.551 7.396 23.894 7.396 28.445z" />
<glyph unicode="&#xe619;" d="M256 289.564c14.791 0 68.267 0.569 69.974 1.707 3.413 3.413 5.689 17.635 5.689 21.049 0 3.413-2.844 17.635-6.258 21.049-0.569 0.569-5.689 1.138-13.654 1.138 1.138 5.689 0.569 14.791-0.569 17.635-2.276 6.258-6.258 20.48-10.809 21.618-6.258 1.707-11.378 3.413-16.498 3.982-6.827 8.534-14.791 17.635-14.791 21.618 0 6.258 2.844 5.689 2.844 14.222-0.569 6.258-4.551 15.929-15.929 15.929s-15.36-9.671-15.36-15.36c0-8.534 2.845-7.964 2.845-14.222 0-3.982-7.964-13.654-14.791-21.618-5.12-1.138-10.24-2.275-16.498-3.982-4.551-1.138-9.102-15.36-10.809-21.618-0.569-2.276-1.707-11.378-0.569-17.635-7.964-0.569-13.084-1.138-13.654-1.138-3.413-3.413-6.258-17.636-6.258-21.049 0-3.413 2.275-17.636 5.689-21.049 1.138-1.707 54.614-2.275 69.405-2.275zM336.214 199.111c0.569 29.582 0 56.889-2.844 59.733-2.844 2.845-54.613 1.138-84.195 1.138-31.289 0-66.56 1.707-69.404-1.138-6.827-6.826-3.413-131.413-3.413-138.24 0-6.827 3.982-108.658 10.809-114.916 2.845-2.844 33.565-6.258 67.698-6.258 30.151 0 62.009 3.982 64.853 6.258 3.413 2.844 6.258 22.187 9.102 49.493-13.654 0.569-25.6 1.138-26.169 1.707-1.707 1.707-3.413 10.24-3.413 11.947 0 1.707 1.707 10.24 3.413 11.947 0.569 0.569 13.654 0.569 27.875 1.138 1.138 13.084 1.707 24.462 2.276 31.858-15.929 0.569-30.72 1.138-30.72 1.707-1.707 1.707-3.413 10.24-3.413 11.947 0 1.707 1.707 10.24 3.413 11.947 0.569 0.569 15.36 1.138 31.289 1.138 0.569 8.534 0.569 19.911 1.138 31.289-16.498 0.569-32.426 1.707-32.995 1.707-1.707 1.707-3.413 10.24-3.413 11.947 0 1.707 1.707 10.24 3.413 11.947 2.276 1.138 18.204 1.138 34.702 1.707z" />
<glyph unicode="&#xe61a;" d="M395.378 223.004c-0.569 1.138-3.982 2.276-20.48 3.982 1.138 18.204 1.707 36.978 1.707 46.080 0 35.271-16.498 65.991-46.649 87.040-14.791 10.24-27.875 15.36-62.009 17.636h-25.031c-33.565-2.276-46.649-7.396-61.44-17.636-30.151-21.049-46.649-52.338-46.649-87.040 0-9.671 0.569-28.444 1.707-46.080-15.929-1.707-19.342-2.845-20.48-3.982-6.826-7.396-7.965-75.662-7.965-83.058 0-7.396 2.275-75.094 9.671-82.489 3.413-2.844 95.573-7.396 133.689-7.396 33.564 0 139.378 3.982 142.222 7.396 7.396 7.396 9.671 75.094 9.671 82.489 0.569 11.947 0 72.818-7.964 83.058zM186.026 273.067c0 18.205 12.516 35.84 27.306 46.080 6.827 5.12 20.48 10.24 33.565 10.809 6.827 0 8.534 0 18.205 0 13.084-1.138 26.738-6.258 33.565-10.809 14.791-10.24 26.738-27.875 27.307-46.080 0-9.102-0.569-26.169-1.138-42.098-33.565 2.275-58.026 3.413-72.818 3.413-14.791 0-34.702-1.707-64.284-3.413-1.138 15.929-1.707 32.996-1.707 42.098z" />
<glyph unicode="&#xe61b;" d="M370.916 242.915c1.707 7.395 2.276 15.36 2.276 23.324 0 69.404-47.786 117.191-117.191 117.191 0 0 0 0 0 0 0 0 0 0 0 0-69.404 0-117.191-47.786-117.191-117.191 0-7.964 0.569-15.929 2.275-23.324 0 0 0 0 0 0-0.569-0.569 0.569-4.551 2.845-10.809 1.707-5.12 2.845-9.671 5.12-14.791 8.534-23.325 40.96-72.818 55.751-95.574 17.636-31.858 41.529-72.818 43.236-74.524 4.551-2.844 7.395-3.413 7.964-3.413 0 0 0 0 0 0 0.569 0 3.413 0.569 7.964 3.413 1.707 1.707 26.169 42.666 43.236 74.524 14.791 23.325 47.218 72.249 55.751 95.574 2.276 4.551 3.413 9.671 5.12 14.791 2.276 6.258 3.413 10.24 2.844 10.809 0 0 0 0 0 0zM256 232.107c-21.049 0-38.115 17.066-38.115 38.116s17.066 38.115 38.115 38.115c21.049 0 38.115-17.067 38.115-38.115s-17.067-38.116-38.115-38.116z" />
<glyph unicode="&#xe61c;" d="M95.004 146.773c2.844-2.844 121.174-0.569 155.875-0.569 30.72 0 163.84-2.276 166.685 0.569 6.827 6.827 12.515 98.987 12.515 105.814 0 6.827-4.551 93.867-11.378 100.694-2.844 2.844-138.24 10.809-167.822 10.809-31.858 0-154.738-7.395-157.582-10.809-6.826-6.827-8.534-94.436-8.534-100.694 0-6.827 3.413-98.987 10.24-105.814zM138.809 317.44c1.707 2.275 91.022 1.707 112.64 1.707 20.48 0 119.466 0 121.173-1.707 4.551-4.551 7.964-61.44 7.964-65.991 0-4.551-3.982-61.44-8.534-65.991-1.707-2.276-98.986-0.569-120.036-0.569-23.893 0-109.796-1.707-112.071 0.569-4.551 4.551-8.534 61.44-8.534 65.991 0 4.551 2.845 61.44 7.395 65.991zM447.147 114.915c-2.844 2.844-153.6 0.569-188.302 0.569-30.72 0-190.578 2.276-193.422-0.569-6.827-6.827-12.516-15.929-12.516-22.755 0-6.827 4.551-16.498 11.378-23.325 2.844-2.844 164.978-4.551 195.129-4.551 31.858 0 187.165 1.707 190.009 4.551 6.827 6.827 11.378 16.498 11.378 23.325-1.138 6.827-6.827 16.498-13.654 22.755z" />
<glyph unicode="&#xe61d;" d="M355.555 203.662c-12.515 8.534-47.786 12.516-71.68 13.654-16.498 0-43.804 0-55.751 0-23.893-1.707-59.165-5.12-71.68-13.654-26.169-18.774-42.098-43.805-42.666-76.8 0-30.72 3.413-95.573 7.395-119.466 3.413-23.894 126.294-25.6 134.827-25.6 8.534 0 130.845 1.138 134.827 25.6 3.413 23.894 7.396 88.746 7.396 119.466 0 33.565-16.498 58.596-42.666 76.8zM240.64 114.915c-1.138-1.138-29.013-2.276-38.685-2.276-11.378 0-38.115 1.138-38.685 2.276-2.275 2.276-3.982 14.791-3.982 17.067 0 2.276 1.707 14.791 3.413 17.067 1.138 1.138 29.013 3.413 39.254 3.413 9.671 0 38.115-2.276 39.254-3.413 2.275-2.276 3.413-15.36 3.413-17.067 0-2.276-1.707-15.36-3.982-17.067zM156.445 344.178c0-2.275 0-3.982 0-6.258 3.413-50.062 43.236-91.591 92.16-93.867 60.871-2.845 108.089 43.236 106.951 101.262 0 1.707 0 3.982 0 5.689 1.707 6.258 2.844 11.378 3.413 12.516 0 2.276 0.569 23.325-5.689 31.858-2.276 2.844-7.964 5.12-15.36 7.395-18.204 26.169-47.786 43.805-81.92 43.805-33.565 0-63.147-17.067-81.351-42.666-8.534-2.275-15.929-5.12-18.204-7.965-6.258-8.534-6.258-29.582-5.689-31.858 0-1.707 1.707-11.378 5.689-19.911zM266.809 372.053c0 2.276 2.276 10.24 3.982 14.791 3.982 0.569 11.378 1.138 19.911 1.138 3.982 0 7.396 0 10.809-0.569 11.378-1.138 27.307-5.12 34.134-7.395 1.138-4.551 1.707-12.515 1.138-14.791-0.569-2.276-2.276-9.671-4.551-14.222-1.707 0-4.551 0-7.964 0v0c-9.102 0-18.774 0.569-26.738 1.138-13.084 1.138-24.462 3.413-29.582 4.551-0.569 5.12-1.138 13.084-1.138 15.36zM173.511 380.587c6.827 2.276 23.325 5.689 34.133 6.826 2.845 0 6.258 0.569 9.671 0.569 9.102 0 17.066-0.569 21.049-1.707 1.707-3.982 3.982-11.947 3.982-14.791 0-2.275-0.569-10.24-1.707-14.791-5.689-1.138-17.066-3.413-29.582-4.551-6.827-0.569-15.929-1.138-24.462-1.138-4.551 0-7.964 0-9.671 0-1.707 3.982-3.982 11.947-4.551 14.222-0.569 2.844 0 11.378 1.138 15.36z" />
<glyph unicode="&#xe61e;" d="M256 382.293c-92.729 0-167.822-75.093-167.822-167.822s75.094-167.822 167.822-167.822c92.729 0 167.822 75.094 167.822 167.822s-75.094 167.822-167.822 167.822zM276.48 109.795c-2.276-2.276-18.774-3.982-21.049-3.982s-18.773 2.276-21.049 4.551c-1.138 1.138-2.275 56.889-2.275 67.698 0 11.947 1.138 60.871 2.275 62.009 2.275 2.275 18.774 4.551 21.049 4.551 2.275 0 18.773-1.707 21.049-3.982l2.844-62.009c0-10.809-2.276-67.698-2.844-68.835zM276.48 275.342c-5.689-5.12-12.515-7.964-20.48-7.964s-14.791 2.845-20.48 7.964c-5.689 5.12-9.102 12.516-9.102 21.618 0 9.102 2.845 15.929 9.102 21.618 5.689 5.12 12.516 7.964 20.48 7.964 7.964 0 14.791-2.845 20.48-7.964 5.689-5.12 9.102-12.516 9.102-21.618 0-9.102-3.413-16.498-9.102-21.618z" />
<glyph unicode="&#xe61f;" d="M476.729 254.862c-0.569 1.707-28.445 22.756-55.182 42.098-1.138 48.356-2.844 93.298-3.982 94.436-5.689 5.689-28.445 10.809-34.134 10.809-5.689 0-29.014-6.827-34.702-12.515-0.569-0.569-1.707-18.205-3.413-42.098-36.409 22.755-87.040 55.182-89.315 54.613-2.845 0.569-100.125-61.44-121.173-75.093-18.773-11.378-98.987-69.404-99.555-72.249-1.706-6.827 6.258-26.738 8.534-30.72 2.276-3.982 17.067-19.911 23.325-21.618 0.569 0 7.965 3.982 18.773 10.24-1.138-26.169-2.275-77.938-2.275-80.782 0-5.689 5.12-93.867 11.378-99.555 2.275-2.276 126.293-5.689 159.858-5.689v0c0.569 0 0.569 0 1.138 0s0.569 0 1.138 0v0c33.565 0 157.582 3.413 159.858 5.689 5.689 5.689 11.378 93.866 11.378 99.555 0 2.276-1.138 54.613-2.276 80.782 10.24-6.258 17.635-10.24 18.774-10.24 6.827 1.707 21.049 17.636 23.325 21.618 2.276 3.982 10.24 23.893 8.534 30.72zM311.182 102.4c-0.569-0.569-44.942-1.707-55.182-1.707s-54.044 1.138-55.182 1.707c-1.707 1.707-3.413 47.218-3.413 48.925 0 1.707 1.138 50.631 2.845 52.338 0.569 0.569 46.080 2.844 55.182 2.844 9.671 0 54.613-2.276 55.182-2.844 1.707-1.707 3.413-50.631 2.844-52.338 1.138-1.707-0.569-47.218-2.276-48.925z" />
<glyph unicode="&#xe621;" d="M462.507 361.244c-2.844 2.845-84.764 10.809-115.484 10.809-11.947 0-28.445-1.138-45.511-2.276-24.462 25.031-62.578 62.578-63.147 62.578-2.845 0-10.809-4.551-11.947-6.258-1.707-1.138-6.827-8.534-7.395-11.378 0-0.569 21.049-26.169 40.96-50.062-11.378-1.707-19.342-2.844-20.48-3.982-3.413-3.413-2.845-46.080-1.707-88.746-15.36 5.689-32.427 9.102-50.062 9.102-77.938 0.569-141.084-62.578-141.084-140.516 0-77.938 63.147-141.084 141.084-141.084 27.875 0 53.476 7.964 75.662 21.618 1.707-9.671 3.413-16.498 5.12-17.635 2.844-2.844 43.236-6.827 79.076-6.827 31.858 0 84.195 3.982 87.040 6.827 6.827 6.827 26.738 171.804 26.738 178.631 0 6.827 7.964 172.374 1.138 179.2zM296.391 166.115c2.276-1.138 4.551-26.738 4.551-27.875 0-1.138-2.844-25.6-4.551-27.875-1.707-1.707-30.151 9.102-34.702 10.809-10.809 3.982-34.133 11.378-34.702 11.947-1.138 1.138-1.707 3.982-1.707 5.12 0 1.138 1.138 3.982 2.275 5.12 0.569 0.569 24.462 8.534 34.702 11.947 5.689 2.276 32.426 11.947 34.134 10.809zM245.191 234.382c2.845 0.569 22.186-15.36 22.756-16.498 0.569-0.569 16.498-20.48 16.498-22.756 0-2.844-27.875-14.791-32.427-17.067-10.24-5.12-31.858-16.498-32.995-16.498-1.707 0-4.551 1.707-5.12 2.276-0.569 0.569-2.275 3.413-2.275 5.12 0 0.569 11.378 23.325 15.929 32.995 3.413 6.258 15.929 31.858 17.636 32.427zM160.995 241.778c1.138 2.275 26.738 4.551 27.875 4.551s25.6-2.845 27.875-4.551c1.707-1.707-9.102-30.151-10.809-34.702-3.982-10.809-11.378-34.133-11.946-34.702-1.138-1.138-3.982-1.707-5.12-1.707-1.138 0-3.982 1.138-5.12 2.276-0.569 0.569-8.534 24.462-11.947 34.702-2.275 5.689-11.947 32.427-10.809 34.134zM109.227 217.884c0.569 0.569 20.48 16.498 22.755 16.498 2.845 0 14.791-27.876 17.066-32.427 5.12-10.24 16.498-31.858 16.498-32.995 0-1.707-1.707-4.551-2.275-5.12-1.138-0.569-3.982-1.707-5.689-1.707-0.569 0-23.325 11.378-32.995 15.929-6.258 2.844-31.858 15.36-31.858 17.067-0.569 2.276 15.929 21.618 16.498 22.756zM83.058 110.933c-1.707 1.707-4.551 26.738-4.551 27.875s2.275 26.169 4.551 27.875c1.707 1.138 28.445-8.534 34.702-10.809 9.671-3.413 34.134-11.378 34.702-11.947 1.138-1.138 2.275-3.982 2.275-5.12 0-1.138-0.569-3.982-1.707-5.12-0.569-0.569-23.893-7.964-34.702-11.947-5.12-1.707-33.565-13.084-35.271-10.809zM131.982 44.942c-2.845 0-22.186 15.36-22.755 16.498-0.569 0.569-17.067 20.48-16.498 22.755 0.569 1.707 26.169 13.654 31.858 17.067 9.102 4.551 31.858 15.929 32.995 15.929 1.707 0 4.551-1.707 5.12-2.276 0.569-0.569 2.275-3.413 2.275-5.12 0-0.569-11.378-22.755-16.498-32.995-1.707-3.982-13.654-31.858-16.498-31.858zM216.178 37.547c-1.707-1.707-26.738-4.551-27.875-4.551-1.138 0-26.169 2.276-27.875 4.551-1.138 1.707 8.534 28.445 10.809 34.702 3.413 9.671 11.378 34.133 11.946 34.702 1.138 1.138 3.982 2.276 5.12 2.276 1.138 0 3.982-0.569 5.12-1.707 0.569-0.569 7.964-23.894 11.947-34.702 1.707-5.12 13.084-33.565 10.809-35.271zM225.849 76.8c-4.551 9.102-15.929 31.858-15.929 32.995 0 1.707 1.707 4.551 2.275 5.12 0.569 0.569 3.413 2.844 5.12 2.276 7.395-3.413 31.858-16.498 32.995-16.498 5.12 0.569 32.426-14.222 32.426-17.067 0-2.844-15.36-22.187-16.498-22.755-0.569-0.569-20.48-17.067-22.756-16.498-2.275 1.138-14.791 26.738-17.636 32.426z" />
<glyph unicode="&#xe622;" d="M113.778 307.2c1.138-13.084 3.982-17.635 5.689-19.342 6.826-6.827 35.84-12.516 42.667-13.085 6.827 0 36.409 4.551 43.236 11.378 2.275 1.707 6.258 7.395 8.534 19.342 33.565-0.569 62.578-0.569 68.267-0.569 14.791 0 145.066 1.707 146.204 3.413 3.413 2.844 6.258 17.066 6.258 19.911 0 3.413-2.276 17.067-5.12 20.48-1.138 1.138-132.551 5.12-146.774 5.12-5.689 0-34.133-0.569-68.267-1.138-2.275 13.654-6.827 18.204-9.102 19.911-6.827 6.827-36.409 11.378-43.236 11.378-6.827 0-35.84-6.258-42.666-13.084-2.275-2.276-5.12-5.12-6.258-21.049-18.204-0.569-30.151-1.138-30.72-1.138-2.844-3.413-5.689-17.067-5.12-20.48 0-3.413 2.844-17.067 6.258-19.911 0-0.569 11.947-1.138 30.151-1.138zM393.102 235.52c-2.276 14.791-6.827 19.911-9.102 22.186-6.827 6.827-36.409 11.378-43.236 11.378-6.827 0-35.84-6.258-42.666-13.085-1.707-2.275-4.551-4.551-5.689-17.636-5.12 0-8.534 0-10.24 0-15.36 0-197.974-3.413-199.68-5.12-2.844-3.413-5.689-17.067-5.12-20.48 0-3.413 2.844-17.067 6.258-19.911 1.138-1.138 182.045-3.413 199.111-3.413 1.707 0 5.689 0 10.24 0 1.138-11.378 3.413-15.36 5.689-17.635 6.827-6.827 35.84-12.515 42.666-13.084 6.827 0 36.409 4.551 43.236 11.378 2.276 2.276 6.258 7.396 9.102 20.48 19.911 0.569 35.271 1.138 35.84 1.707 3.413 2.844 6.258 17.067 6.258 19.911 0 3.413-2.276 17.067-5.12 20.48-1.707 1.138-17.067 2.275-37.546 2.845zM282.169 123.449c-3.982 0-21.618 0-44.374-0.569-2.275 13.084-6.827 17.635-8.534 19.342-6.827 6.827-36.409 11.378-43.236 11.378-6.827 0-35.84-6.258-42.667-13.084-2.275-2.276-4.551-4.551-6.258-20.48-30.72-0.569-54.044-1.707-54.614-2.276-2.844-3.413-5.689-17.067-5.12-20.48 0-3.413 2.844-17.067 6.258-19.911 0.569-0.569 23.894-1.138 54.044-1.707 1.138-12.515 3.982-17.067 5.689-19.342 6.827-6.827 35.84-12.515 42.667-13.084 6.827 0 36.409 4.551 43.236 11.378 2.275 1.707 6.258 7.396 8.534 19.342 22.755 0 39.822-0.569 44.373-0.569 14.791 0 145.066 1.707 146.204 3.413 3.413 2.844 6.258 17.067 6.258 19.911 0 3.413-2.276 17.067-5.12 20.48-1.707 2.844-133.12 6.258-147.342 6.258z" />
<glyph unicode="&#xe624;" d="M82.489 323.129c1.138-1.138 2.844-2.275 4.551-3.982 0 0 0 0 0 0 0.569-0.569 1.707-1.138 2.275-1.707 0 0 0 0 0 0 0.569-0.569 1.707-1.138 2.275-2.275 0 0 0 0 0.569 0 0.569-0.569 1.707-1.138 2.275-2.276 0 0 0.569-0.569 0.569-0.569 0.569-0.569 1.707-1.138 2.275-1.707 0 0 0.569-0.569 0.569-0.569 0.569-0.569 1.707-1.138 2.275-1.707 0 0 0.569-0.569 0.569-0.569 0.569-0.569 1.707-1.138 2.275-1.707 0 0 0.569-0.569 0.569-0.569 0.569-0.569 1.707-1.138 2.275-1.707 0.569 0 0.569-0.569 1.138-0.569 0.569-0.569 1.707-1.138 2.275-1.707 0.569-0.569 0.569-0.569 1.138-1.138 0.569-0.569 1.138-1.138 2.275-1.707 0.569-0.569 1.138-0.569 1.138-1.138 0.569-0.569 1.138-1.138 1.707-1.707 0.569-0.569 1.138-0.569 1.138-1.138 0.569-0.569 1.138-1.138 1.707-1.707 0.569-0.569 1.138-0.569 1.707-1.138 0.569-0.569 1.138-1.138 1.707-1.707 0.569-0.569 1.138-1.138 1.707-1.138 0.569-0.569 1.138-0.569 1.707-1.138 0.569-0.569 1.138-1.138 1.707-1.707 0.569-0.569 1.138-0.569 1.707-1.138 0.569-0.569 1.138-1.138 1.707-1.707 0.569-0.569 1.138-0.569 1.707-1.138 0.569-0.569 1.138-1.138 1.707-1.138 0.569-0.569 1.138-0.569 1.138-1.138 0.569-0.569 1.138-1.138 1.707-1.138 0.569-0.569 1.138-0.569 1.138-1.138 0.569-0.569 1.138-1.138 1.707-1.138 0.569-0.569 1.138-0.569 1.138-1.138 0.569-0.569 1.138-1.138 1.707-1.138 0.569-0.569 0.569-0.569 1.138-1.138 0.569-0.569 1.138-0.569 1.707-1.138 0.569-0.569 0.569-0.569 1.138-1.138 0.569-0.569 1.138-0.569 1.707-1.138 0.569-0.569 0.569-0.569 1.138-1.138 0.569-0.569 1.138-0.569 1.707-1.138 0.569 0 0.569-0.569 1.138-0.569 0.569-0.569 1.138-0.569 1.138-1.138 0.569 0 0.569-0.569 1.138-0.569 0.569-0.569 0.569-0.569 1.138-1.138 0.569 0 0.569-0.569 1.138-0.569 0.569-0.569 0.569-0.569 1.138-1.138 0 0 0.569-0.569 0.569-0.569 0.569-0.569 0.569-0.569 1.138-1.138 0 0 0.569-0.569 0.569-0.569 0.569-0.569 1.138-0.569 1.707-1.138 7.395-5.12 24.462-16.498 41.529-29.013 16.498-11.378 39.254-27.876 49.494-34.702h1.707c10.24 6.827 33.565 23.325 50.062 34.702 17.635 12.516 34.133 23.893 41.529 29.013 0.569 0.569 1.138 0.569 1.707 1.138 0 0 0.569 0 0.569 0.569 0.569 0 0.569 0.569 1.138 1.138 0 0 0.569 0.569 0.569 0.569 0.569 0.569 0.569 0.569 1.138 1.138 0.569 0 0.569 0.569 1.138 0.569 0.569 0.569 1.138 0.569 1.138 1.138 0.569 0 0.569 0.569 1.138 0.569 0.569 0.569 1.138 0.569 1.138 1.138 0.569 0 0.569 0.569 1.138 0.569 0.569 0.569 1.138 0.569 1.707 1.138 0.569 0 0.569 0.569 1.138 0.569 0.569 0.569 1.138 0.569 1.707 1.138 0.569 0.569 0.569 0.569 1.138 1.138 0.569 0.569 1.138 0.569 1.707 1.138 0.569 0.569 0.569 0.569 1.138 1.138 0.569 0.569 1.138 1.138 1.707 1.138 0.569 0.569 0.569 0.569 1.138 1.138 0.569 0.569 1.138 1.138 1.707 1.138 0.569 0.569 1.138 0.569 1.138 1.138 0.569 0.569 1.138 1.138 1.707 1.138 0.569 0.569 1.138 0.569 1.707 1.138 0.569 0.569 1.138 1.138 1.707 1.138 0.569 0.569 1.138 0.569 1.707 1.138 0.569 0.569 1.138 1.138 1.707 1.138 0.569 0.569 1.138 0.569 1.707 1.138 0.569 0.569 1.138 1.138 1.707 1.138 0.569 0.569 1.138 1.138 1.707 1.138 0.569 0.569 1.138 0.569 1.707 1.138 0.569 0.569 1.138 1.138 1.707 1.707 0.569 0.569 1.138 0.569 1.138 1.138 0.569 0.569 1.138 1.138 1.707 1.707 0.569 0.569 1.138 0.569 1.138 1.138 0.569 0.569 1.707 1.138 2.276 1.707 0.569 0.569 0.569 0.569 1.138 1.138 0.569 0.569 1.707 1.138 2.276 1.707 0.569 0.569 0.569 0.569 1.138 1.138 0.569 0.569 1.707 1.138 2.276 1.707 0 0 0.569 0.569 0.569 0.569 0.569 0.569 1.707 1.138 2.276 2.276 0 0 0.569 0.569 0.569 0.569 0.569 0.569 1.707 1.138 2.276 2.275 0 0 0.569 0.569 0.569 0.569 0.569 0.569 1.707 1.138 2.276 2.276 0 0 0.569 0.569 0.569 0.569 0.569 0.569 1.707 1.138 2.276 2.275 0 0 0.569 0 0.569 0.569 0.569 0.569 1.707 1.138 2.276 2.276 0 0 0.569 0 0.569 0.569 0.569 0.569 1.707 1.138 2.276 2.275 0 0 0 0 0 0 0.569 0.569 1.707 1.138 2.276 1.707 0 0 0 0 0 0 0.569 0.569 1.707 1.138 2.276 1.707 0 0 0 0 0 0 0.569 0.569 1.707 1.138 2.276 1.707 0 0 0 0 0 0 0.569 0.569 1.138 1.138 1.707 1.707 0 0 0 0 0 0 0.569 0.569 1.138 1.138 1.707 1.707 0 0 0 0 0 0 0.569 0.569 1.138 1.138 1.707 1.707 0 0 0 0 0 0 0.569 0.569 0.569 0.569 1.138 1.138 0 1.707-0.569 2.845-0.569 4.551-30.72 2.844-157.013 9.102-185.458 9.102-22.186 0-142.222-5.689-172.374-8.534-0.569-1.707-0.569-2.845-1.138-4.551 6.258-3.413 7.965-5.12 10.809-7.395 0 0 0 0 0 0zM452.836 307.769c-6.827-5.689-17.067-14.222-32.426-27.306-9.671-7.964-42.666-34.702-56.32-43.236-6.827-4.551-23.325-15.929-40.96-27.876-58.596-40.96-60.302-41.529-66.56-41.529 0 0 0 0-0.569 0h-2.845c-6.827 0-7.395 0-66.56 41.529-17.066 11.947-33.565 23.325-40.96 27.876-13.654 8.534-46.080 35.84-55.182 43.804-14.791 12.516-24.462 21.049-31.289 26.738-3.982-33.565-6.258-91.022-6.258-95.574 0-6.827 5.689-112.071 12.515-118.898 2.844-2.844 152.462-6.258 186.595-6.258 30.151 0 191.715 3.982 194.56 6.258 6.827 6.258 12.515 112.071 12.515 118.898 0 4.551-2.844 62.009-6.258 95.574z" />
<glyph unicode="&#xe625;" d="M454.542 383.431c-0.569 1.138-71.111 41.529-79.075 45.511-5.689 2.844-33.565 14.222-44.373 17.635-2.276 0.569-5.12 0-6.258-2.276-7.964-14.791-35.271-69.973-55.751-112.071-15.36 0.569-30.72 1.138-45.511 1.138-63.147 0-156.445-7.964-162.702-13.654-14.222-13.084 31.858-62.578 55.182-98.986 9.102-13.654 56.889-52.907 87.609-69.405 0-9.102 0-16.498 0-19.342 0-9.102 0.569-69.404 1.707-104.675-23.325-1.138-57.458-3.413-58.026-3.982-2.845-2.844-5.12-15.929-5.12-18.774 0-2.844 2.845-15.929 5.689-18.774 1.138-1.138 60.302-2.844 76.231-2.844 13.654 0 74.524 1.707 76.231 2.844 2.844 2.844 5.689 15.929 5.689 18.774 0 2.844-2.276 15.929-5.12 18.774-1.138 1.138-36.409 3.413-59.733 3.982 1.138 35.84 2.845 96.142 2.845 104.675 0 2.844 0 10.24-0.569 19.911 32.426 18.774 83.627 67.129 83.627 68.267 0 1.707 69.404 85.334 55.182 98.987-3.413 3.413-34.134 7.395-73.956 10.24 12.515 25.6 25.6 52.906 34.134 72.249 0 0.569 0.569 0.569 1.138 0.569 46.080-22.755 98.987-41.529 100.125-40.96 2.844 1.138 7.964 7.964 9.102 9.671 0 1.707 2.844 10.24 1.707 12.515z" />
<glyph unicode="&#xe627;" d="M365.226 279.324c0 6.827-13.084 25.031-16.498 28.445s-21.618 15.929-29.014 15.36c-2.276 0-36.978-30.151-64.284-55.182-27.306 24.462-62.578 55.751-64.853 55.751-6.827 0-25.031-13.084-28.445-16.498-3.413-3.413-15.929-21.618-15.36-29.014 0-2.275 30.151-36.978 55.182-64.284-24.462-26.738-55.182-62.009-55.182-64.284 0-6.827 11.947-25.031 15.36-29.014 3.413-3.413 21.049-16.498 28.445-16.498 2.275 0 37.547 31.289 64.853 55.751 26.738-24.462 62.009-55.182 64.284-55.182 6.827 0 25.031 11.947 29.014 15.36 3.413 3.413 16.498 21.049 16.498 28.445 0 2.276-31.289 37.546-55.751 64.853 24.462 28.445 55.751 63.716 55.751 65.991z" />
<glyph unicode="&#xe628;" d="M207.644 275.342c9.671 9.671 19.342 10.809 40.391 11.946 10.809 0.569 25.031 1.707 42.098 2.276 28.445 1.707 63.716 2.844 76.231 2.844 12.515 0 44.942-1.138 71.111-2.844-2.276 31.289-5.12 64.284-9.102 68.267-2.844 2.844-178.631 10.809-209.92 10.809-33.565 0-198.542-7.964-201.387-10.809-5.689-6.827-10.809-120.036-10.809-127.431 0-6.827 6.258-120.036 13.085-126.862 1.138-1.138 19.342-2.844 58.596-3.982 7.395-7.396 39.254-36.978 43.236-37.546 0 0 0 0 0 0 0 0 0 0 0 0 0 0 0 0 0.569 0 0 0 0 0 0.569 0 3.413 1.138 29.013 25.031 39.822 35.271 9.671 0 22.186-0.569 32.995-0.569-0.569 6.258-1.707 14.222-2.275 23.325-1.707 19.911-2.845 41.529-2.845 44.942 0 3.982 1.138 26.169 2.275 46.080 3.413 43.236 6.258 54.045 15.36 64.285zM497.778 259.982c-1.707 1.707-134.827 7.395-135.395 7.395-21.049 0-133.12-5.12-134.827-7.395-4.551-4.551-7.964-86.471-7.964-86.471 0 0 4.551-79.644 9.102-85.334 1.707-2.276 95.004-4.551 116.622-4.551 5.689 0 15.929 0 28.445 0.569 7.396-7.396 24.462-23.894 26.738-24.462 0 0 0 0 0 0v0c0 0 0 0 0 0s0 0 0 0 0 0 0 0c2.844 0.569 23.894 20.48 29.014 25.6 26.738 1.138 65.422 1.707 65.991 2.844 4.551 4.551 9.102 81.351 9.102 85.902 1.138 4.551-2.276 80.782-6.827 85.902z" />
<glyph unicode="&#xe629;" d="M318.009 186.027c17.067 17.067 80.782 89.315 80.782 92.16 0 7.395-13.084 25.6-17.067 29.014-3.982 3.413-22.755 15.929-29.582 15.929-2.844 0-70.542-63.147-89.315-82.489-6.258-6.258-19.911-21.049-34.702-35.84-2.845 2.844-5.12 5.689-7.395 7.396-17.066 17.067-59.165 51.2-62.578 51.2-7.395 0-25.6-13.085-29.013-17.067-3.413-3.982-15.929-22.756-15.929-29.582 0-2.845 33.565-40.96 52.338-59.734 17.066-17.067 56.32-52.338 59.733-52.338 0 0 0 0 0.569 0 0 0 0 0 0 0 0 0 0.569 0 0.569 0.569 2.275 1.138 5.689 3.413 9.102 6.827 21.049 17.635 69.404 60.871 82.489 73.955z" />
<glyph unicode="&#xe62a;" d="M458.524 252.587c-0.569 0.569-7.396 1.138-18.204 1.707-12.515 62.578-31.858 147.911-34.133 149.618-0.569 1.138-1.707 2.844-2.276 3.413-2.276 2.844-121.173 9.671-147.911 9.671v0c0 0 0 0 0 0s0 0 0 0v0c-27.306 0-145.636-6.827-147.911-9.671-0.569-0.569-1.707-2.275-2.275-3.413-2.275-1.707-21.049-87.040-34.133-149.618-10.809-0.569-18.204-1.138-18.204-1.707-5.689-6.258-10.24-85.334-10.24-91.022 0-6.258 5.12-79.076 11.378-84.764 0.569-0.569 9.671-1.138 23.325-1.707 1.707-30.151 2.844-52.338 3.982-53.476 6.258-5.689 32.427-10.24 38.115-10.24 6.258 0 31.858 5.12 38.115 11.378 0.569 1.138 1.707 21.618 2.845 49.493 42.098-1.138 83.058-1.707 95.573-1.707 12.515 0 53.476 0.569 95.574 1.707 1.138-28.445 1.707-48.925 2.844-49.493 5.689-6.258 31.858-11.378 38.115-11.378 6.258 0 32.426 3.982 38.115 10.24 1.138 1.138 2.276 23.325 3.982 53.476 14.222 0.569 22.755 1.138 23.325 1.707 6.258 5.689 11.378 79.076 11.378 84.764-1.138 6.258-5.12 85.334-11.378 91.022zM256 262.258c-12.516 0-75.094-1.138-117.76-3.413 4.551 25.6 9.102 61.44 12.516 85.333 31.858 0 91.022-2.275 105.244-2.275v0c0 0 0 0 0 0s0 0 0 0v0c14.222 0 73.387 2.275 105.245 2.275 3.982-23.893 8.534-60.302 12.515-85.333-42.666 2.275-105.245 3.413-117.76 3.413zM129.707 129.138c-18.773 0-34.133 15.36-34.133 34.133s15.36 34.134 34.133 34.134c18.774 0 34.133-15.36 34.133-34.134 0-18.774-15.36-34.134-34.133-34.134zM382.293 129.138c-18.774 0-34.134 15.36-34.134 34.133s15.36 34.134 34.134 34.134c18.774 0 34.134-15.36 34.134-34.134 0-18.774-15.36-34.134-34.134-34.134z" />
<glyph unicode="&#xe62b;" d="M449.991 348.729c-1.138 1.138-18.204 3.413-41.529 5.12-0.569 13.654-3.413 30.72-4.551 31.858-2.844 2.844-16.498 5.12-19.342 5.12-2.844 0-15.929-2.844-19.342-5.689-1.138-1.138-2.276-14.222-2.844-27.875-43.805 2.845-92.16 5.689-112.071 5.689-19.342 0-58.026-2.276-95.573-4.551-1.138 13.084-3.413 26.738-3.982 27.306-2.845 2.844-16.498 5.12-19.342 5.12-2.845 0-15.929-2.844-19.342-5.689-1.138-1.138-2.275-16.498-2.844-30.72-26.738-2.276-46.080-4.551-47.218-6.258-9.102-9.102-15.36-142.222-15.36-151.325 0-9.102 7.965-141.654 17.067-150.756 3.982-3.982 139.378-9.102 186.595-9.102 41.529 0 193.422 5.12 197.404 9.102 9.102 9.102 17.067 141.654 17.067 150.755 0.569 9.671-5.689 142.222-14.791 151.894zM178.062 87.609c-0.569-0.569-29.013-1.138-34.133-1.138-6.258 0-32.427 0.569-32.995 1.138-1.138 1.138-2.275 24.462-2.275 25.6 0 1.138 0.569 24.462 1.707 25.6 0.569 0.569 27.875 1.707 32.995 1.707 5.12 0 34.133-1.138 34.702-1.707 1.138-1.138 1.707-24.462 1.707-25.6 0.569-1.707-0.569-24.462-1.707-25.6zM178.062 166.684c-0.569-0.569-29.013-1.138-34.133-1.138-6.258 0-32.427 0.569-32.995 1.138-1.138 1.138-2.275 24.462-2.275 25.6 0 1.138 0.569 24.462 1.707 25.6 0.569 0.569 27.875 1.707 32.995 1.707 5.12 0 34.133-1.138 34.702-1.707 1.138-1.138 1.707-24.462 1.707-25.6 0.569-1.138-0.569-24.462-1.707-25.6zM178.062 250.311c-0.569-0.569-29.013-1.138-34.133-1.138-6.258 0-32.427 0.569-32.995 1.138-1.138 1.138-2.275 24.462-2.275 25.6 0 1.138 0.569 24.462 1.707 25.6 0.569 0.569 27.875 1.707 32.995 1.707 5.12 0 34.133-1.138 34.702-1.707 1.138-1.138 1.707-24.462 1.707-25.6 0.569-1.138-0.569-24.462-1.707-25.6zM290.702 87.609c-0.569-0.569-29.014-1.138-34.134-1.138-6.258 0-32.427 0.569-32.995 1.138-1.138 1.138-2.275 24.462-2.275 25.6 0 1.138 0.569 24.462 1.707 25.6 0.569 0.569 27.875 1.707 32.995 1.707 5.12 0 34.133-1.138 34.702-1.707 1.138-1.138 1.707-24.462 1.707-25.6 0.569-1.707-0.569-24.462-1.707-25.6zM290.702 171.235c-0.569-0.569-29.014-1.138-34.134-1.138-6.258 0-32.427 0.569-32.995 1.138-1.138 1.138-2.275 24.462-2.275 25.6 0 1.138 0.569 24.462 1.707 25.6 0.569 0.569 27.875 1.707 32.995 1.707 5.12 0 34.133-1.138 34.702-1.707 1.138-1.138 1.707-24.462 1.707-25.6 0.569-1.138-0.569-24.462-1.707-25.6zM290.702 250.311c-0.569-0.569-29.014-1.138-34.134-1.138-6.258 0-32.427 0.569-32.995 1.138-1.138 1.138-2.275 24.462-2.275 25.6 0 1.138 0.569 24.462 1.707 25.6 0.569 0.569 27.875 1.707 32.995 1.707 5.12 0 34.133-1.138 34.702-1.707 1.138-1.138 1.707-24.462 1.707-25.6 0.569-1.138-0.569-24.462-1.707-25.6zM403.342 171.235c-0.569-0.569-29.014-1.138-34.134-1.138-6.258 0-32.426 0.569-32.995 1.138-1.138 1.138-2.276 24.462-2.276 25.6 0 1.138 0.569 24.462 1.707 25.6 0.569 0.569 27.875 1.707 32.995 1.707 5.12 0 34.133-1.138 34.702-1.707 1.138-1.138 1.707-24.462 1.707-25.6 0.569-1.138-0.569-24.462-1.707-25.6zM403.342 250.311c-0.569-0.569-29.014-1.138-34.134-1.138-6.258 0-32.426 0.569-32.995 1.138-1.138 1.138-2.276 24.462-2.276 25.6 0 1.138 0.569 24.462 1.707 25.6 0.569 0.569 27.875 1.707 32.995 1.707 5.12 0 34.133-1.138 34.702-1.707 1.138-1.138 1.707-24.462 1.707-25.6 0.569-1.138-0.569-24.462-1.707-25.6z" />
<glyph unicode="&#xe62e;" d="M405.618 268.515c-2.844 1.707-91.591 0-124.018-5.689 1.138 1.138 54.044 133.689 50.062 135.965-3.982 2.844-9.671 4.551-17.067 3.982-2.844 0-106.382-109.796-120.036-124.587-8.534-9.671-88.178-108.658-88.746-113.778-0.569-5.689 87.040 9.671 120.035 16.498-13.084-30.151-18.774-43.236-22.756-52.338 0-0.569-36.978-94.435-32.995-97.28 3.982-2.844 6.258-6.258 13.084-5.689 2.845 0.569 68.835 57.458 84.196 74.524 14.222 15.36 146.204 164.409 138.24 168.391z" />
</font>
</defs>
</svg>
